# xmcd CD database file
#
# Track frame offsets:
#	150
#	21817
#	42999
#	71567
#	88359
#	108054
#	133994
#	148406
#	176306
#
# Disc length: 2674 seconds
#
# Revision: 0
# Processed by: cddbd v1.5.1PL0 Copyright (c) Steve Scherf et al.
# Submitted via: CDex 1.51
#
DISCID=810a7009
DTITLE=Western Stars - Western Stars
DYEAR=2004
DGENRE=Jazz
TTITLE0=The sky tonight
TTITLE1=Coming home
TTITLE2=Tonight The world is mine
TTITLE3=Everything comes down on you
TTITLE4=Left you a note
TTITLE5=Kiss the world
TTITLE6=Are you in love
TTITLE7=Silver Creek
TTITLE8=Weary
EXTD=YEAR: 2004
EXTT0=
EXTT1=
EXTT2=
EXTT3=
EXTT4=
EXTT5=
EXTT6=
EXTT7=
EXTT8=
PLAYORDER=
